<svg width="33" height="33" viewBox="0 0 33 33" fill="none" xmlns="http://www.w3.org/2000/svg">
<path d="M13.75 24.75C16.1906 24.7497 18.561 23.9327 20.4834 22.429L26.5279 28.4735L28.4721 26.5293L22.4276 20.4847C23.9321 18.5621 24.7496 16.1913 24.75 13.75C24.75 7.68488 19.8151 2.75 13.75 2.75C7.68488 2.75 2.75 7.68488 2.75 13.75C2.75 19.8151 7.68488 24.75 13.75 24.75ZM13.75 5.5C18.2999 5.5 22 9.20012 22 13.75C22 18.2999 18.2999 22 13.75 22C9.20012 22 5.5 18.2999 5.5 13.75C5.5 9.20012 9.20012 5.5 13.75 5.5Z" fill="#828DA9"/>
</svg>
